<svg width="156" height="156" viewBox="0 0 156 156" fill="none" xmlns="http://www.w3.org/2000/svg">
<path d="M117.39 60.645C115.77 60.645 114.215 61.2887 113.07 62.4346C111.924 63.5804 111.28 65.1345 111.28 66.755V94.445C111.28 96.0655 111.924 97.6196 113.07 98.7654C114.215 99.9113 115.77 100.555 117.39 100.555C119.01 100.555 120.565 99.9113 121.71 98.7654C122.856 97.6196 123.5 96.0655 123.5 94.445V66.755C123.5 65.9526 123.342 65.1581 123.035 64.4168C122.728 63.6755 122.278 63.0019 121.71 62.4346C121.143 61.8672 120.469 61.4172 119.728 61.1101C118.987 60.803 118.192 60.645 117.39 60.645ZM38.61 60.645C36.9895 60.645 35.4354 61.2887 34.2896 62.4346C33.1437 63.5804 32.5 65.1345 32.5 66.755V94.445C32.5 96.0655 33.1437 97.6196 34.2896 98.7654C35.4354 99.9113 36.9895 100.555 38.61 100.555C40.2305 100.555 41.7846 99.9113 42.9304 98.7654C44.0763 97.6196 44.72 96.0655 44.72 94.445V66.755C44.72 65.1345 44.0763 63.5804 42.9304 62.4346C41.7846 61.2887 40.2305 60.645 38.61 60.645ZM49.14 60.645V102.245C49.14 104.09 49.8728 105.859 51.1771 107.163C52.4814 108.467 54.2504 109.2 56.095 109.2H60.515V123.955C60.515 125.575 61.1587 127.13 62.3046 128.275C63.4504 129.421 65.0045 130.065 66.625 130.065C68.2455 130.065 69.7996 129.421 70.9454 128.275C72.0913 127.13 72.735 125.575 72.735 123.955V109.2H83.265V123.955C83.265 125.575 83.9087 127.13 85.0546 128.275C86.2004 129.421 87.7545 130.065 89.375 130.065C90.9955 130.065 92.5496 129.421 93.6954 128.275C94.8413 127.13 95.485 125.575 95.485 123.955V109.2H99.905C101.75 109.2 103.519 108.467 104.823 107.163C106.127 105.859 106.86 104.09 106.86 102.245V60.645H49.14Z" fill="#4798FF"/>
<path d="M106.08 52C104.167 45.5819 99.9246 40.1106 94.185 36.66L93.21 36.075L92.17 35.555L93.34 33.54L96.785 27.04C96.8503 26.8548 96.8539 26.6534 96.7954 26.466C96.7368 26.2785 96.6192 26.1151 96.46 26H96.005C95.839 26.0074 95.6768 26.0522 95.5305 26.131C95.3842 26.2097 95.2576 26.3205 95.16 26.455L91.65 32.5L90.545 34.515L89.505 34.06L88.4 33.67C81.6638 31.3322 74.3363 31.3322 67.6 33.67L66.56 34.06L65.455 34.515L64.35 32.5L60.84 26C60.7803 25.8933 60.7001 25.7994 60.604 25.7237C60.508 25.648 60.398 25.5919 60.2803 25.5587C60.1626 25.5255 60.0395 25.5159 59.9181 25.5302C59.7966 25.5446 59.6792 25.5827 59.5725 25.6425C59.4658 25.7022 59.3719 25.7824 59.2962 25.8785C59.2205 25.9745 59.1645 26.0845 59.1313 26.2022C59.0981 26.3199 59.0884 26.443 59.1027 26.5644C59.1171 26.6859 59.1553 26.8033 59.215 26.91L62.66 33.41L63.83 35.425L62.79 35.945L61.815 36.53C56.048 39.9948 51.8178 45.5267 49.985 52C49.4694 53.6871 49.1852 55.4364 49.14 57.2H106.86C106.796 55.4429 106.535 53.6985 106.08 52ZM65 48.555C64.4858 48.555 63.9831 48.4025 63.5555 48.1168C63.128 47.8311 62.7947 47.4251 62.5979 46.95C62.4011 46.4749 62.3497 45.9521 62.45 45.4478C62.5503 44.9434 62.7979 44.4801 63.1615 44.1165C63.5252 43.7529 63.9884 43.5053 64.4928 43.405C64.9971 43.3046 65.5199 43.3561 65.995 43.5529C66.4701 43.7497 66.8761 44.083 67.1618 44.5105C67.4475 44.9381 67.6 45.4408 67.6 45.955C67.6 46.6446 67.3261 47.3059 66.8385 47.7935C66.3509 48.2811 65.6896 48.555 65 48.555ZM91 48.555C90.4858 48.555 89.9831 48.4025 89.5555 48.1168C89.128 47.8311 88.7947 47.4251 88.5979 46.95C88.4011 46.4749 88.3497 45.9521 88.45 45.4478C88.5503 44.9434 88.7979 44.4801 89.1615 44.1165C89.5252 43.7529 89.9884 43.5053 90.4928 43.405C90.9971 43.3046 91.5199 43.3561 91.995 43.5529C92.4701 43.7497 92.8761 44.083 93.1618 44.5105C93.4475 44.9381 93.6 45.4408 93.6 45.955C93.6 46.6446 93.3261 47.3059 92.8385 47.7935C92.3509 48.2811 91.6896 48.555 91 48.555Z" fill="#4798FF"/>
</svg>
